<svg xmlns="http://www.w3.org/2000/svg" viewBox="0 0 40 39.504">
  <path d="m28.408 22.126v-3.591h5.5v-2.9h-5.5v-2.6h5.5v-2.845h-8.677v14.8h10.037a17.213 17.213 0 0 1 -32.943-7 16.862 16.862 0 0 1 .265-2.97h-2.371a19.546 19.546 0 0 0 38.421 7.118h-10.232z" fill="#9ccb3b" transform="translate(0 1.539)" />
  <path d="m19.465 0a19.551 19.551 0 0 0 -18.935 14.687h5.57l4.961 13.341 3.775-9.738 3.856 9.738 6.043-16.276h-3.222l-3.062 8.023-3.58-8.08v-.023.023l-3.58 8.08-3.061-8.023h-4.109a17.212 17.212 0 0 1 32.563 7.793 18.075 18.075 0 0 1 -.15 2.245h2.348a20.613 20.613 0 0 0 .138-2.245 19.559 19.559 0 0 0 -19.555-19.545z" fill="#0493ce" transform="translate(.08)" />
</svg>
